<?xml version="1.0" encoding="UTF-8" standalone="no"?>
<!-- Created with Inkscape (http://www.inkscape.org/) -->

<svg
   width="36.731228mm"
   height="37.711754mm"
   viewBox="0 0 36.731228 37.711754"
   version="1.1"
   id="svg1"
   xml:space="preserve"
   xmlns="http://www.w3.org/2000/svg"
   xmlns:svg="http://www.w3.org/2000/svg"><defs
     id="defs1" /><g
     id="layer6"
     transform="translate(-109.06407,-85.504921)"><g
       id="g33"
       transform="matrix(1.6227939,0,0,1.6227939,-91.090979,-51.430297)"><rect
         style="fill:#1e3a8a;fill-opacity:1;stroke:#1e3a8a;stroke-width:0;stroke-linecap:round;stroke-dasharray:none;stroke-opacity:0.996078"
         id="rect32"
         width="20.766842"
         height="5.8465209"
         x="124.41396"
         y="88.212303"
         ry="0" /><rect
         style="fill:none;fill-opacity:1;stroke:#1e3a8a;stroke-width:1.40982;stroke-linecap:round;stroke-dasharray:none;stroke-opacity:1"
         id="rect2"
         width="21.224741"
         height="18.886135"
         x="124.04469"
         y="88.030121"
         ry="2.2254789" /><path
         id="path31"
         style="fill:#1e3a8a;fill-opacity:1;stroke:#ffffff;stroke-width:1.57654;stroke-linecap:round;stroke-dasharray:none;stroke-opacity:1"
         d="m 138.9095,88.081716 c 0.13095,1.142723 0.57383,1.937263 1.07976,1.93711 0.50575,-3.45e-4 0.94839,-0.794782 1.07929,-1.93711 -0.0106,0.0011 -0.28854,0.0029 -0.29668,0.0029 h -1.56577 c -0.008,0 -0.28598,-0.0019 -0.29668,-0.0029 z" /><path
         style="fill:#f1f5ff;fill-opacity:1;stroke:#1e3a8a;stroke-width:1.673;stroke-linecap:round;stroke-dasharray:none;stroke-opacity:0.996078"
         d="m 140.03586,85.218884 v 3.741774 m 1.5875,2.116668"
         id="path32" /><path
         id="path31-2"
         style="fill:#1e3a8a;fill-opacity:1;stroke:#ffffff;stroke-width:1.57654;stroke-linecap:round;stroke-dasharray:none;stroke-opacity:1"
         d="m 127.77304,88.081716 c 0.13095,1.142723 0.57383,1.937263 1.07976,1.93711 0.50575,-3.45e-4 0.94839,-0.794782 1.07929,-1.93711 -0.0106,0.0011 -0.28854,0.0029 -0.29668,0.0029 h -1.56577 c -0.008,0 -0.28598,-0.0019 -0.29668,-0.0029 z" /><path
         style="fill:#f1f5ff;fill-opacity:1;stroke:#1e3a8a;stroke-width:1.673;stroke-linecap:round;stroke-dasharray:none;stroke-opacity:0.996078"
         d="m 128.8994,85.218884 v 3.741774 m 1.5875,2.116668"
         id="path32-7" /><rect
         style="fill:#1e3a8a;fill-opacity:1;stroke:#1e3a8a;stroke-width:0;stroke-linecap:round;stroke-dasharray:none;stroke-opacity:0.996078"
         id="rect33"
         width="3"
         height="3"
         x="128.24928"
         y="95.761742"
         ry="0" /><rect
         style="fill:#1e3a8a;fill-opacity:1;stroke:#1e3a8a;stroke-width:0;stroke-linecap:round;stroke-dasharray:none;stroke-opacity:0.996078"
         id="rect33-3"
         width="3"
         height="3"
         x="132.87642"
         y="95.761742"
         ry="0" /><rect
         style="fill:#1e3a8a;fill-opacity:1;stroke:#1e3a8a;stroke-width:0;stroke-linecap:round;stroke-dasharray:none;stroke-opacity:0.996078"
         id="rect33-89"
         width="3"
         height="3"
         x="128.3495"
         y="100.5325"
         ry="0" /><rect
         style="fill:#1e3a8a;fill-opacity:1;stroke:#1e3a8a;stroke-width:0;stroke-linecap:round;stroke-dasharray:none;stroke-opacity:0.996078"
         id="rect33-3-2"
         width="3"
         height="3"
         x="132.97664"
         y="100.5325"
         ry="0" /><rect
         style="fill:#1e3a8a;fill-opacity:1;stroke:#1e3a8a;stroke-width:0;stroke-linecap:round;stroke-dasharray:none;stroke-opacity:0.996078"
         id="rect33-8"
         width="3"
         height="3"
         x="137.50357"
         y="95.761742"
         ry="0" /></g></g></svg>
