<?xml version="1.0" encoding="UTF-8" standalone="no"?>
<!-- Created with Inkscape (http://www.inkscape.org/) -->

<svg
   width="31.224155mm"
   height="31.032393mm"
   viewBox="0 0 31.224155 31.032392"
   version="1.1"
   id="svg1"
   xml:space="preserve"
   xmlns="http://www.w3.org/2000/svg"
   xmlns:svg="http://www.w3.org/2000/svg"><defs
     id="defs1" /><g
     id="layer7"
     transform="translate(-130.69482,-15.105604)"><g
       id="g58"
       transform="matrix(0.96910999,0,0,0.96910999,88.171881,-214.19734)"
       style="stroke-width:0.670718;stroke-dasharray:none"><path
         style="fill:#cce4fe;fill-opacity:1;stroke:#000000;stroke-width:0.798013;stroke-linecap:round;stroke-dasharray:none;stroke-opacity:1"
         id="rect43"
         width="26.098866"
         height="7.1093626"
         x="48.923683"
         y="238.4445"
         d="m 50.981658,238.4445 h 21.982915 c 1.140119,0 2.057976,1.08474 2.057976,2.43216 v 2.24505 c 0,1.34742 -0.917857,2.43216 -2.057976,2.43216 H 50.981658 c -1.140118,0 -2.057975,-1.08474 -2.057975,-2.43216 v -2.24505 c 0,-1.34742 0.917857,-2.43216 2.057975,-2.43216 z"
         ry="2.4321547"
         transform="matrix(1.0252871,0,0,1.178221,-2.0421785,-43.858316)"
         rx="2.0579753" /><path
         id="rect55"
         style="fill:#1e3a8a;fill-opacity:1;stroke:#000000;stroke-width:0.877093;stroke-linecap:round;stroke-dasharray:none;stroke-opacity:1"
         d="m 49.338152,245.38297 a 5.0212142,5.6024539 0 0 0 -5.021263,5.60203 5.0212142,5.6024539 0 0 0 5.021263,5.60255 5.0212142,5.6024539 0 0 0 0.499682,-0.0394 c 0.01385,0.009 0.02898,0.0142 0.04589,0.0142 h 20.126653 c 0.05418,0 0.09779,-0.0502 0.09779,-0.11268 v -10.9303 c 0,-0.0624 -0.04361,-0.11267 -0.09779,-0.11267 H 49.883728 c -0.0099,0 -0.0189,0.003 -0.02788,0.007 a 5.0212142,5.6024539 0 0 0 -0.517697,-0.0302 z" /><path
         id="rect55-2"
         style="fill:#1e3a8a;fill-opacity:1;stroke:#000000;stroke-width:0.877093;stroke-linecap:round;stroke-dasharray:none;stroke-opacity:1"
         d="m 50.6349,256.47828 a 6.0497017,5.8584752 0 0 0 -6.04976,5.85804 6.0497017,5.8584752 0 0 0 6.04976,5.85856 6.0497017,5.8584752 0 0 0 0.602031,-0.0414 c 0.01668,0.009 0.03492,0.015 0.05529,0.015 h 24.249165 c 0.06528,0 0.117823,-0.0525 0.117823,-0.11782 v -1.07642 a 5.7546873,5.5727863 0 0 1 -2.574003,-4.63744 5.7546873,5.5727863 0 0 1 2.574003,-4.63796 v -1.07797 c 0,-0.0653 -0.05254,-0.11783 -0.117823,-0.11783 H 51.292225 c -0.01191,0 -0.02277,0.003 -0.03359,0.007 a 6.0497017,5.8584752 0 0 0 -0.623735,-0.0315 z" /><path
         style="fill:#cce4fe;fill-opacity:1;stroke:#000000;stroke-width:0.58849;stroke-linecap:round;stroke-dasharray:none;stroke-opacity:1"
         id="rect57"
         width="19.644308"
         height="1.5902536"
         x="53.320271"
         y="261.40964"
         ry="0.57428181"
         rx="0"
         d="m 53.941325,261.40964 h 18.4022 c 0.02583,0 0.06775,-2e-4 0.0935,0.002 0.280729,0.0224 0.503303,0.24498 0.525703,0.52571 0.0021,0.0257 0.0019,0.0677 0.0019,0.0935 v 0.34815 c 0,0.0258 1.98e-4,0.0677 -0.0019,0.0935 -0.0224,0.28073 -0.244974,0.50331 -0.525703,0.52571 -0.02574,0.002 -0.06766,0.002 -0.0935,0.002 h -18.4022 c -0.02583,0 -0.06775,2e-4 -0.0935,-0.002 -0.280728,-0.0224 -0.503303,-0.24498 -0.525703,-0.52571 -0.0021,-0.0257 -0.0019,-0.0677 -0.0019,-0.0935 v -0.34815 c 0,-0.0258 -1.99e-4,-0.0677 0.0019,-0.0935 0.0224,-0.28073 0.244974,-0.50331 0.525703,-0.52571 0.02574,-0.002 0.06766,-0.002 0.0935,-0.002 z"
         transform="matrix(0.99522556,0,0,1.3052107,0.40895665,-79.71331)" /><g
         id="g56"
         transform="matrix(0.97076417,0,0,0.99582303,11.578842,11.790005)"
         style="fill:#cce4fe;fill-opacity:1;stroke-width:0.670718;stroke-dasharray:none"><g
           id="g57"
           transform="translate(-9.9624716,-11.459181)"
           style="fill:#cce4fe;fill-opacity:1;stroke-width:0.670718;stroke-dasharray:none"><g
             id="g52"
             transform="matrix(0.99993948,0,0,1.0084085,-29.174483,-10.097175)"
             style="fill:#cce4fe;fill-opacity:1;stroke-width:0.667937;stroke-dasharray:none"><rect
               style="fill:#cce4fe;fill-opacity:1;stroke:#000000;stroke-width:0.667937;stroke-linecap:round;stroke-dasharray:none;stroke-opacity:1"
               id="rect51"
               width="21.79583"
               height="5.425571"
               x="77.6418"
               y="259.49197"
               ry="0.046772167" /><rect
               style="fill:#f5faff;fill-opacity:1;stroke:#000000;stroke-width:0.667937;stroke-linecap:round;stroke-dasharray:none;stroke-opacity:1"
               id="rect52"
               width="18.521778"
               height="2.6192415"
               x="80.915855"
               y="260.89514"
               ry="0.046772167" /></g></g></g></g></g></svg>
