<?xml version="1.0" encoding="UTF-8" standalone="no"?>
<!-- Created with Inkscape (http://www.inkscape.org/) -->

<svg
   width="33.511665mm"
   height="30.616362mm"
   viewBox="0 0 33.511665 30.616362"
   version="1.1"
   id="svg1"
   xml:space="preserve"
   xmlns="http://www.w3.org/2000/svg"
   xmlns:svg="http://www.w3.org/2000/svg"><defs
     id="defs1" /><g
     id="layer2"
     transform="translate(-13.389669,-12.191804)"><g
       id="g48"><path
         style="fill:#feffff;fill-opacity:1;stroke:#252525;stroke-width:1.98049;stroke-linecap:butt;stroke-dasharray:none;stroke-opacity:1;paint-order:fill markers stroke"
         d="M 97.153616,172.33034 96.93149,121.25705 c 0.129977,-4.62296 3.1778,-6.64576 5.05228,-7.08953 0.52207,-0.1236 73.49174,0.17748 73.49174,0.17748 4.9677,-0.10708 7.04047,2.55108 7.25504,6.09323 l 0.11105,52.63144 4.72985,0.048 c 1.53474,0.0156 2.86409,1.31805 2.35471,2.75379 -1.06397,2.99895 -3.88389,6.06513 -6.62124,5.96401 l -87.852086,-0.0381 c -2.254271,-1.20624 -4.228836,-1.68729 -5.408569,-5.17174 -0.638274,-1.88521 0.848736,-3.53262 2.842367,-3.54679 l 35.241648,-0.25037 c 0.23687,0.99549 0.44803,2.35716 2.54192,2.65626 l 18.46754,-0.0539 c 1.83865,-0.55797 1.51636,-1.58126 2.05957,-2.52151 l 31.2349,0.19514"
         id="path1"
         transform="matrix(0.32820098,0,0,0.32820098,-15.791188,-17.196254)" /><path
         style="fill:#cce4fe;fill-opacity:1;stroke:#252525;stroke-width:1.98049;stroke-linecap:round;stroke-linejoin:round;stroke-dasharray:none;stroke-opacity:1;paint-order:fill markers stroke"
         id="rect9"
         width="73.421936"
         height="44.531601"
         x="103.41635"
         y="120.52973"
         d="m 105.88215,120.52973 h 68.34313 a 2.6130114,2.6130114 45 0 1 2.61301,2.61301 v 39.5448 a 2.3737921,2.3737921 135 0 1 -2.37379,2.37379 h -68.25112 a 2.7970263,2.7970263 45 0 1 -2.79703,-2.79702 v -39.26878 a 2.4657995,2.4657995 135 0 1 2.4658,-2.4658 z"
         transform="matrix(0.32820098,0,0,0.32820098,-15.791188,-17.196254)" /><path
         style="fill:none;stroke:#252525;stroke-width:0.65;stroke-linecap:round;stroke-linejoin:round;stroke-dasharray:none;stroke-opacity:1;paint-order:fill markers stroke"
         d="M 20.678803,35.248229 H 39.426258"
         id="path9" /><path
         d="m 113.86695,139.6694 v 19.95891 h 12.20391 V 139.6694 a 2.1206897,2.1206897 45 0 0 -2.12069,-2.12069 h -7.96253 a 2.1206897,2.1206897 135 0 0 -2.12069,2.12069 z"
         style="fill:#1e3a8a;fill-opacity:1;stroke:#252525;stroke-width:1.98049;stroke-linecap:round;stroke-linejoin:round;stroke-dasharray:none;paint-order:fill markers stroke"
         id="path7"
         transform="matrix(0.32820098,0,0,0.32820098,-15.791188,-17.207425)" /><path
         d="m 113.86695,139.6694 v 28.65361 h 12.20391 V 139.6694 a 2.1206897,2.1206897 45 0 0 -2.12069,-2.12069 h -7.96253 a 2.1206897,2.1206897 135 0 0 -2.12069,2.12069 z"
         style="fill:#1e3a8a;fill-opacity:1;stroke:#252525;stroke-width:1.98049;stroke-linecap:round;stroke-linejoin:round;stroke-dasharray:none;paint-order:fill markers stroke"
         id="path7-5"
         transform="matrix(0.32820098,0,0,0.32820098,-9.2882716,-20.061034)" /><path
         d="m 113.86695,139.6694 v 39.14246 h 12.20391 V 139.6694 a 2.1206897,2.1206897 45 0 0 -2.12069,-2.12069 h -7.96253 a 2.1206897,2.1206897 135 0 0 -2.12069,2.12069 z"
         style="fill:#1e3a8a;fill-opacity:1;stroke:#252525;stroke-width:1.98049;stroke-linecap:round;stroke-linejoin:round;stroke-dasharray:none;paint-order:fill markers stroke"
         id="path7-5-1"
         transform="matrix(0.32820098,0,0,0.32820098,-2.7853544,-23.503485)" /><path
         style="fill:#1e3a8a;fill-opacity:1;stroke:#252525;stroke-width:1.98049;stroke-linecap:round;stroke-linejoin:round;stroke-dasharray:none;stroke-opacity:1;paint-order:fill markers stroke"
         d="m 162.46964,99.518298 c 0.48021,0.465816 1.31149,1.309302 1.83018,1.838192 0.25575,0.26077 0.58443,0.20247 0.71071,-0.14026 1.08276,-2.938607 1.21135,-7.110853 1.06724,-10.166504 -0.0134,-0.284187 -0.25802,-0.517687 -0.54255,-0.516607 -3.40869,0.01295 -5.85836,0.57737 -10.36522,1.321954 -0.20292,0.03353 -0.25698,0.185403 -0.12066,0.339661 l 1.73484,1.963115 a 1.0379158,1.0379158 91.515104 0 1 -0.0374,1.414762 l -11.85948,12.069199 a 0.79167606,0.79167606 174.77034 0 1 -1.01926,0.0933 l -8.53936,-5.98884 a 0.54967186,0.54967186 175.1602 0 0 -0.7024,0.0595 l -17.9521,17.77897 c -0.44336,0.43909 -0.79497,1.30599 -0.65982,1.91436 0.43678,1.96613 1.75748,2.89976 3.0807,3.15005 0.75368,0.14256 1.82719,-0.42428 2.36809,-0.97351 l 13.37345,-13.57921 a 1.0258798,1.0258798 174.29688 0 1 1.30505,-0.13033 l 7.92082,5.34892 a 1.3280588,1.3280588 174.85217 0 0 1.67122,-0.15056 l 15.9976,-15.626011 c 0.20038,-0.195733 0.53906,-0.213456 0.73837,-0.02012 z"
         id="path11"
         transform="matrix(0.32820098,0,0,0.32820098,-15.791188,-17.196254)" /></g></g></svg>
