<?xml version="1.0" encoding="UTF-8" standalone="no"?>
<!-- Created with Inkscape (http://www.inkscape.org/) -->

<svg
   width="32.561024mm"
   height="39.194916mm"
   viewBox="0 0 32.561023 39.194916"
   version="1.1"
   id="svg1"
   xml:space="preserve"
   xmlns="http://www.w3.org/2000/svg"
   xmlns:svg="http://www.w3.org/2000/svg"><defs
     id="defs1" /><g
     id="layer11"
     transform="translate(-179.67719,-85.997509)"><g
       id="g41"
       transform="matrix(1.6227939,0,0,1.6227939,-106.2713,-53.251933)"><path
         id="rect34"
         style="fill:#1e3a8a;fill-opacity:1;stroke:#1e3a8a;stroke-width:0.3;stroke-linecap:round;stroke-dasharray:none;stroke-opacity:1"
         d="m 210.41557,89.123086 0,15.943864 c -0.0105,0.0567 -0.0105,0.11487 0,0.17157 v 0.0439 h 0.0114 c 0.0289,0.11193 0.0982,0.20901 0.1943,0.27234 l 8.11785,4.7873 c 0.90971,0.5364 2.03522,0.53984 2.94814,0.009 l 8.26255,-4.80487 c 0.1,-0.0582 0.17439,-0.15235 0.20825,-0.26355 h 0.002 v -0.0186 c 0.0165,-0.07 0.0165,-0.14292 0,-0.21291 V 89.123086 a 2.2291847,2.2291847 45 0 0 -2.22918,-2.229185 h -15.28613 a 2.2291847,2.2291847 135 0 0 -2.22918,2.229185 z"
         transform="translate(-34.050137,-0.93544332)" /><path
         style="fill:none;fill-opacity:1;stroke:#f5faff;stroke-width:1.54547;stroke-linecap:round;stroke-linejoin:round;stroke-dasharray:none;stroke-opacity:1"
         d="m 179.73993,103.26276 3.1327,-3.08772 3.58023,3.4308 5.48222,-5.038995"
         id="path39" /><path
         style="fill:#f5faff;fill-opacity:1;stroke:#f5faff;stroke-width:1.65;stroke-linecap:round;stroke-linejoin:round;stroke-dasharray:none;stroke-opacity:1"
         id="path40"
         d="m 219.455,93.87174 -2.63065,-1.628652 -2.64888,1.598834 0.73603,-3.005175 -2.33913,-2.025164 3.08553,-0.228649 1.20322,-2.850454 1.17094,2.863863 3.08276,0.263486 -2.36186,1.998613 z"
         transform="matrix(0.97174645,0,0,1.0295134,-24.395463,1.0710263)" /></g></g></svg>
