<?xml version="1.0" encoding="UTF-8" standalone="no"?>
<!-- Created with Inkscape (http://www.inkscape.org/) -->

<svg
   width="35.278793mm"
   height="33.611008mm"
   viewBox="0 0 35.278793 33.611008"
   version="1.1"
   id="svg1"
   xml:space="preserve"
   xmlns="http://www.w3.org/2000/svg"
   xmlns:svg="http://www.w3.org/2000/svg"><defs
     id="defs1" /><g
     id="layer10"
     transform="translate(-39.501367,-85.839354)"><g
       id="g1"
       transform="matrix(1.6227939,0,0,1.6227939,-22.779569,-55.073568)"><rect
         style="fill:#1e3a8a;fill-opacity:1;stroke:#1e3a8a;stroke-width:0.499999;stroke-linecap:round;stroke-opacity:1"
         id="rect1"
         width="5.5191154"
         height="5.7997484"
         x="39.195076"
         y="101.4956"
         ry="0.8886748"
         rx="0.98221546" /><path
         style="fill:#1e3a8a;fill-opacity:1;stroke:#1e3a8a;stroke-width:0.499999;stroke-linecap:round;stroke-opacity:1"
         id="rect12"
         width="4.911077"
         height="7.2496858"
         x="46.912483"
         y="99.531166"
         ry="1.0289876"
         transform="matrix(1.1123481,0,0,1.1123481,-5.6166177,-11.668542)"
         d="m 47.941471,99.531166 h 2.853102 c 0.570059,0 1.028987,0.458929 1.028987,1.028984 v 5.19171 c 0,0.57006 -0.458928,1.02899 -1.028987,1.02899 h -2.853102 c -0.570059,0 -1.028988,-0.45893 -1.028988,-1.02899 v -5.19171 c 0,-0.570055 0.458929,-1.028984 1.028988,-1.028984 z" /><rect
         style="fill:#1e3a8a;fill-opacity:1;stroke:#1e3a8a;stroke-width:0.499999;stroke-linecap:round;stroke-opacity:1"
         id="rect14"
         width="5.5191154"
         height="11.131776"
         x="54.349258"
         y="95.789398"
         ry="1.145" /><path
         style="fill:none;stroke:#1e3a8a;stroke-width:1.4;stroke-linecap:round;stroke-dasharray:none;stroke-opacity:1"
         d="m 39.078833,97.387673 c 13.699332,-1.793359 19.18705,-9.393511 19.223361,-9.447977"
         id="path25" /><path
         style="fill:none;stroke:#1e3a8a;stroke-width:1.4;stroke-linecap:round;stroke-linejoin:round;stroke-dasharray:none;stroke-opacity:1"
         d="m 54.112072,87.760632 c 4.5369,-0.140317 4.5369,-0.23386 4.5369,-0.23386 l 0.04677,4.349811"
         id="path30" /></g></g></svg>
