<?xml version="1.0" encoding="UTF-8" standalone="no"?>
<!-- Created with Inkscape (http://www.inkscape.org/) -->

<svg
   width="25.443769mm"
   height="30.616003mm"
   viewBox="0 0 25.443769 30.616003"
   version="1.1"
   id="svg1"
   xml:space="preserve"
   xmlns="http://www.w3.org/2000/svg"
   xmlns:svg="http://www.w3.org/2000/svg"><defs
     id="defs1" /><g
     id="layer3"
     transform="translate(-53.956628,-14.007905)"><g
       id="g47"
       transform="matrix(0.62702317,0,0,0.62702317,5.1562353,-4.1957893)"
       style="stroke-width:1.02861;stroke-dasharray:none"><path
         style="fill:#cce4fe;fill-opacity:1;stroke:#000000;stroke-width:1.02861;stroke-linecap:round;stroke-linejoin:round;stroke-dasharray:none;stroke-opacity:1;paint-order:fill markers stroke"
         d="m 82.376664,91.429403 0.08135,42.116847 a 2.7477585,2.7477585 44.777504 0 0 2.763786,2.7424 l 33.903696,-0.19782 a 2.7779091,2.7779091 134.86649 0 0 2.7617,-2.7746 l 0.0395,-33.642023 a 6.8078145,6.8078145 68.009669 0 0 -1.91464,-4.7412 l -4.33146,-4.477853 a 6.4494011,6.4494011 22.794917 0 0 -4.67633,-1.965259 l -25.874504,0.16357 a 2.7706413,2.7706413 134.76356 0 0 -2.753122,2.775938 z"
         id="path15"
         transform="translate(-4.033663,-58.943528)" /><path
         style="fill:#cce4fe;fill-opacity:1;stroke:#000000;stroke-width:1.02861;stroke-linecap:round;stroke-linejoin:round;stroke-dasharray:none;stroke-opacity:1;paint-order:fill markers stroke"
         d="m 120.91509,96.485407 -3.84617,-0.0094 a 3.8783186,3.8783186 45.646319 0 1 -3.86805,-3.956315 l 0.0693,-3.44476"
         id="path17"
         transform="translate(-3.8059562,-58.683292)" /><path
         style="fill:#76a8e0;fill-opacity:0.353183;stroke:#76a8e0;stroke-width:0.784786;stroke-linecap:round;stroke-linejoin:round;stroke-dasharray:none;stroke-opacity:0.35;paint-order:fill markers stroke"
         d="m 119.96138,96.355291 -3.05106,-0.08531 a 3.8667705,3.8667705 47.193319 0 1 -3.75412,-4.053135 l 0.12274,-2.523296 c 0.46875,0.103685 1.15578,0.454424 1.80968,0.990231 0.54736,0.448514 2.72638,2.67802 3.95869,4.125281 0.65632,0.770795 0.78198,1.417463 0.91407,1.546234 z"
         id="path17-3"
         transform="matrix(1.3106843,0,0,1.3106843,-39.8198,-87.45266)" /><path
         style="fill:none;fill-opacity:1;stroke:#000000;stroke-width:1.02861;stroke-linecap:round;stroke-linejoin:round;stroke-dasharray:none;stroke-opacity:1;paint-order:fill markers stroke"
         d="M 86.606079,61.079312 H 109.76711"
         id="path20" /><path
         style="fill:none;fill-opacity:1;stroke:#000000;stroke-width:1.02861;stroke-linecap:round;stroke-linejoin:round;stroke-dasharray:none;stroke-opacity:1;paint-order:fill markers stroke"
         d="M 88.883149,66.230142 H 107.49004"
         id="path21" /><circle
         style="fill:#1e3a8a;fill-opacity:1;stroke:#000000;stroke-width:1.02861;stroke-linecap:round;stroke-linejoin:round;stroke-dasharray:none;stroke-opacity:1;paint-order:fill markers stroke"
         id="path22"
         cx="98.1866"
         cy="46.728455"
         r="9.6647243" /><path
         style="fill:none;fill-opacity:1;stroke:#ffffff;stroke-width:1.02861;stroke-linecap:round;stroke-linejoin:round;stroke-dasharray:none;stroke-opacity:1;paint-order:fill markers stroke"
         d="m 97.987918,105.1645 2.546152,3.04767 a 0.61161063,0.61161063 178.78688 0 0 0.95491,-0.0202 l 4.50358,-5.87967"
         id="path23"
         transform="translate(-3.8036444,-58.851521)" /></g></g></svg>
